<svg xmlns="http://www.w3.org/2000/svg" xml:space="preserve" style="fill-rule:evenodd;clip-rule:evenodd;stroke-linejoin:round;stroke-miterlimit:2" viewBox="0 0 148.49 168.88"><path d="m74.25 8.25-66 114.28h132l-66-114.28Z" style="fill:#ff0;fill-opacity:.88"/><path d="m13.24 39.78 52.82-30.5a8.25 8.25 0 1 1 16.37 0l52.83 30.5a8.25 8.25 0 1 1 8.2 14.17v60.98a8.25 8.25 0 1 1-8.2 14.17l-52.83 30.5a8.25 8.25 0 1 1-16.37 0l-52.82-30.5a8.25 8.25 0 1 1-8.2-14.17V53.95a8.25 8.25 0 1 1 8.2-14.17Zm-1.78 14.17v56.61l25.41-44-23.63-13.64c-.54.42-1.14.76-1.78 1.03Zm8.75 71.79 49.05 28.32a8.21 8.21 0 0 1 1.77-1.03v-27.3H20.21Zm59.02 28.32 49.06-28.32H77.46v27.29c.63.27 1.23.62 1.77 1.03Zm57.8-43.5v-56.6a8.24 8.24 0 0 1-1.78-1.04l-23.63 13.64 25.41 44Zm-4.97-65.24L83 16.99l25.42 44.03 23.64-13.64a8.38 8.38 0 0 1 0-2.06ZM65.5 16.99 16.44 45.32a8.21 8.21 0 0 1 0 2.06l23.63 13.64L65.5 17ZM42.42 69.76l-27.6 47.78c.42.55.76 1.14 1.03 1.78h55.19V92.04a8.25 8.25 0 0 1-4.98-8.63L42.42 69.76Zm35.04 49.56h55.18c.27-.64.62-1.23 1.03-1.77l-27.6-47.79-23.64 13.65a8.25 8.25 0 0 1-4.98 8.63v27.28Zm25.42-55.1-27.6-47.78a8.28 8.28 0 0 1-2.06 0l-27.6 47.79 23.64 13.64a8.21 8.21 0 0 1 9.98 0l23.64-13.64Z" style="fill:#fff"/></svg>
