<svg xmlns="http://www.w3.org/2000/svg" xmlns:xlink="http://www.w3.org/1999/xlink" viewBox="0.17 0.08 15.35 13.07"><defs><linearGradient xlink:href="#a" id="b" x1="7.6438656" x2="7.6438656" y1="13.097747" y2=".47352728" gradientTransform="translate(.11090773 .00153209) scale(.99982574)" gradientUnits="userSpaceOnUse"/><linearGradient id="a"><stop offset="0" style="stop-color:#f9d100;stop-opacity:1"/><stop offset=".5" style="stop-color:#fad200;stop-opacity:1"/><stop offset=".50099999" style="stop-color:#0059b7;stop-opacity:1"/><stop offset="1" style="stop-color:#0059b7;stop-opacity:1"/></linearGradient></defs><path d="M7.7534412.47497679c-.8160474-.00185-1.6198416.010796-2.3522513.037122-1.0712305.027542-1.9633035.0686-2.4237286.1187265-.8167899.089077-1.346.43239091-1.6820359.95890911-.35896437.4278421-.55826517.9960401-.58546367 1.6987451-.02756.711616-.037177 1.618913-.038774 2.535121-.0009234.120862-.0009234.242373-.0006932.364442.00138 1.958662.039285 3.8486325.039285 3.8486325 0 1.419333.97468977 2.409803 2.16566777 2.562041.9412719.120676 3.057741.163655 5.1352225.154929.00138.000005.00275 0 .00404 0 .8583768.0033 1.7080279-.0085 2.4766402-.03623 1.071231-.02754 1.963304-.0686 2.423728-.118726.81679-.08907 1.346-.432391 1.682037-.958909.358963-.427843.558264-.996041.585463-1.6987451.02756-.7116164.03717-1.6189134.03877-2.5351214.000926-.120859.000926-.24237.000688-.364438-.0014-1.958663-.03929-3.848632-.03929-3.848632 0-1.419334-.974689-2.40980481-2.165667-2.56204211-.94126-.12068-3.0577285-.1636592-5.1352103-.1549334-.00138-.0000069-.00272.0000046-.00404 0-.04168 0-.083323-.0006932-.1249461-.0009234z" style="fill:none;fill-opacity:1;stroke:url(#b);stroke-width:.79377514;stroke-miterlimit:4;stroke-dasharray:.79377512,.79377512;stroke-dashoffset:0;stroke-opacity:1" transform="translate(-.10815994)"/><path d="m8.1345093 1.5072697-1.3687615-.012868-1.0058247 7.0317744-.1453746-.97733-2.719526-.000054-.1194792.873847 2.0746383.0037.17287 1.26278 1.5037379.0029.9270383-6.644842.1582724 1.128804.889645-.000741z" style="fill:#0058b5;fill-opacity:1;stroke:none;stroke-width:.26459172;stroke-miterlimit:4;stroke-dasharray:none;stroke-opacity:1" transform="translate(-.10815994)"/><path d="m8.7394038 5.8895053-.8882452.0017.7846634 5.6400167 1.1827937-.0015.4370243-3.1044587 2.037644.0015.125479-.874147-2.9314894.0017-.2625544 1.855676z" style="fill:#f7cf00;fill-opacity:1;stroke:none;stroke-width:.26459172;stroke-miterlimit:4;stroke-dasharray:none;stroke-opacity:1" transform="translate(-.10815994)"/></svg>
