<svg xmlns="http://www.w3.org/2000/svg" xml:space="preserve" style="fill-rule:evenodd;clip-rule:evenodd;stroke-linejoin:round;stroke-miterlimit:2" viewBox="0 0 180 180"><path d="M0 0h180v180H0z" style="fill:#ee4639"/><path d="M66.605 80.244c-.244-37.187 34.747-52.669 36.598-51.159.917.748-3.341 4.912-3.238 15.52.063 6.502.832 15.921 11.506 25.218 2.947 2.566 7.528 5.7 10.926 8.714 8.379 7.431 15.268 16.632 15.179 32.017-.11 19.102-13.817 40.4-45.335 40.685-30.407.276-49.283-21.025-49.735-47.077-.392-22.648 15.684-37.2 16.598-36.474.844.67-2.773 2.8-2.773 13.947 0 14.024 7.759 24.62 12.36 22.196 5.091-2.683-1.988-8.751-2.086-23.587Zm26.994 2.982s-1.613 2.157-1.68 7.712c-.071 5.912 2.568 11.817 2.656 17.693.194 12.996-14.356 17.773-14.356 17.773s6.542 5.84 14.205 5.84 18.863-6.183 18.863-19.565c0-9.679-6.694-13.184-12.933-19.696-4.565-4.765-6.755-9.757-6.755-9.757Z" style="fill:#fff"/></svg>
