<svg xmlns="http://www.w3.org/2000/svg" xml:space="preserve" style="fill-rule:evenodd;clip-rule:evenodd;stroke-linejoin:round;stroke-miterlimit:2" viewBox="0 0 192 192"><circle cx="96" cy="96" r="96" style="fill:#209cee"/><path d="M.209.012C.174.012.141.006.11-.008.079-.021.051-.036.028-.055L.069-.11c.021.017.043.03.066.041.023.011.048.017.077.017.032 0 .056-.007.072-.023C.3-.09.308-.107.308-.128c0-.017-.005-.031-.016-.042C.281-.181.267-.191.25-.199.233-.206.215-.213.197-.22A.8045.8045 0 0 1 .13-.25C.108-.261.09-.275.076-.293.062-.31.055-.333.055-.36c0-.039.015-.072.045-.099.029-.026.07-.039.123-.039.03 0 .058.005.084.016.026.011.048.024.067.039l-.04.052a.25494.25494 0 0 0-.052-.031C.264-.43.244-.434.223-.434c-.031 0-.053.007-.067.021-.015.014-.022.03-.022.049 0 .015.005.028.015.037.01.01.023.018.039.025.016.007.033.015.051.022.023.009.046.018.069.029.023.011.041.026.057.044.015.019.022.043.022.074 0 .026-.007.05-.02.072-.014.022-.034.04-.06.053C.28.005.248.012.209.012Z" style="fill:#fff;fill-rule:nonzero" transform="matrix(90 0 0 90 11.90615 117.87845)"/><path d="M.274.012c-.043 0-.081-.01-.116-.03C.123-.038.096-.067.076-.105c-.02-.038-.03-.084-.03-.137 0-.055.011-.101.033-.139.021-.038.05-.067.086-.087.035-.02.074-.03.115-.03.032 0 .059.006.083.017.023.011.042.025.059.04L.38-.387C.366-.4.351-.41.336-.418.32-.426.302-.43.283-.43c-.029 0-.055.008-.078.023-.023.016-.041.038-.054.066-.014.029-.02.062-.02.099 0 .055.014.1.042.134.027.035.063.052.108.052.023 0 .044-.005.063-.015C.363-.08.38-.092.395-.105l.036.055c-.022.019-.046.034-.073.045C.331.007.303.012.274.012Z" style="fill:#fff;fill-rule:nonzero" transform="matrix(90 0 0 90 49.63133 117.87845)"/><path d="M.194.012C.153.012.12 0 .093-.025.066-.049.052-.083.052-.126c0-.053.024-.094.072-.123.047-.028.123-.048.226-.059 0-.021-.003-.04-.008-.059C.336-.386.326-.401.312-.413.297-.424.277-.43.25-.43c-.028 0-.054.005-.079.016s-.047.023-.066.036L.073-.435C.096-.45.124-.464.157-.478c.033-.013.068-.02.107-.02.059 0 .102.018.129.054.027.037.04.085.04.146V0H.365L.358-.058H.355a.4129.4129 0 0 1-.074.049C.254.005.225.012.194.012Zm.024-.066c.023 0 .045-.006.066-.017.021-.011.043-.027.066-.048v-.135c-.081.01-.137.025-.169.045-.033.02-.049.046-.049.077 0 .027.008.047.025.059.017.013.037.019.061.019Z" style="fill:#fff;fill-rule:nonzero" transform="matrix(90 0 0 90 89.7875 117.87845)"/><path d="M.082 0v-.486H.15l.007.07H.16c.023-.023.048-.043.074-.059C.26-.49.29-.498.323-.498c.051 0 .089.016.113.048.023.033.035.08.035.142V0H.389v-.297c0-.045-.007-.078-.022-.099C.352-.417.329-.427.297-.427c-.025 0-.047.006-.066.019-.02.013-.042.031-.067.056V0H.082Z" style="fill:#fff;fill-rule:nonzero" transform="matrix(90 0 0 90 135.16576 117.87845)"/></svg>
