<svg xmlns="http://www.w3.org/2000/svg" xml:space="preserve" fill-rule="evenodd" clip-rule="evenodd" stroke-linejoin="round" stroke-miterlimit="2" viewBox="0 0 28.18 28.18"><circle cx="26.093" cy="26.733" r="14.724" fill="#475f8e" transform="translate(-10.8804 -11.492616) scale(.95704)"/><path d="m5.93145 8.225625 1.72535125 1.1116025c1.35150625-1.84087675 3.38073625-2.95560625 5.54128-3.1977785l-.109948-2.049563c.00617325-.550692.43241675-1.00896725 1.00542925-1.00145425.5680125.01617325.99896725.44973725 1.00145425 1.00542925L14.99042 6.1350265c1.0587045.1262695 2.1140115.4584235 3.10128 1.0284235.9872685.57 1.8025755 1.317846 2.44128 2.1715765l1.71540325-1.1111655c.482487-.275692 1.07344175-.119256 1.37145425.36457075.2930125.492487.109256 1.09076225-.36457075 1.37145425l-1.829948.929563c.87054375 1.99217225.91977375 4.30690175.00128 6.3977785l1.82535125.9383975c.47544773.2745.640525.89057727.366025 1.366025-.2745.47544773-.89057727.640525-1.366025.366025l-1.72535125-1.1116025c-1.35150625 1.84087675-3.38073625 2.95560625-5.54128 3.1977785l.109948 2.049563c-.00617325.550692-.43241675 1.00896725-1.00542925 1.00145425-.5680125-.01617325-.99896725-.44973725-1.00145425-1.00542925l.10459675-2.0411655c-1.0587045-.1262695-2.1140115-.4584235-3.10128-1.0284235-.9872685-.57-1.8025755-1.317846-2.44128-2.1715765L5.93501675 19.959439c-.482487.275692-1.07344175.119256-1.37145425-.36457075-.2930125-.492487-.109256-1.09076225.36457075-1.37145425l1.829948-.929563c-.87054375-1.99217225-.91977375-4.30690175-.00128-6.3977785L4.93145 9.957675c-.47544772-.2745-.640525-.89057727-.366025-1.366025.2745-.47544772.89057728-.640525 1.366025-.366025m5.94779675 3.83810875c.41758325-.46327525.9733715-.76592875 1.58540325-.885999l-.1676015-3.0297035C11.76183775 8.34709475 10.32937675 9.14819 9.33885125 10.42383l2.5403955 1.63990375M15.5917 11.493575c.277128.16.5119355.35330125.7094225.5712435l2.5401145-1.63960725C18.3800195 9.824064 17.79318025 9.3005 17.0917 8.8955c-.70148025-.405-1.4483195-.651436-2.199537-.75028875l-.1498855 3.01960725c.287487.06205775.5722945.1687565.8494225.3287565m1.36245325 3.50015875 2.6903955 1.38009625c.6094745-1.49564.5870135-3.13673525-.00819725-4.56579875l-2.7076015 1.3697035c.20203175.59007025.21782 1.22272375.02540325 1.815999m-.65 1.1258325c-.41758325.46327525-.9733715.76592875-1.58540325.885999l.1676015 3.0297035c1.53521075-.1990635 2.96767175-1.00015875 3.95819725-2.27579875l-2.5403955-1.63990375M12.5917 16.689725c-.277128-.16-.5119355-.35330125-.71808275-.5762435L9.342163 17.75808875C9.8033805 18.359236 10.39021975 18.8828 11.0917 19.2878c.70148025.405 1.4483195.651436 2.199537.75028875l.15854575-3.01460725c-.29614725-.06705775-.58095475-.1737565-.85808275-.3337565m-1.36245325-3.50015875L8.53885125 11.80947c-.6094745 1.49564-.5870135 3.13673525.00819725 4.56579875l2.7076015-1.3697035c-.20203175-.59007025-.21782-1.22272375-.02540325-1.815999Z" fill="#fff" fill-rule="nonzero"/></svg>
