<svg xmlns="http://www.w3.org/2000/svg" viewBox="0 0 26.47 26.93"><defs><style>.a{fill:#68bc71;}.b{fill:#67b279;}.c{fill:#fff;}</style></defs><title>logo-shield</title><path class="a" d="M13.46,0A30,30,0,0,0,.23,3.09c0,4.59-.06,16,13.23,23.84C26.76,19.12,26.7,7.68,26.7,3.09A30,30,0,0,0,13.46,0Z" transform="translate(-0.23)"/><path class="b" d="M13.45,26.92C.17,19.11.23,7.68.23,3.09A30,30,0,0,1,13.45,0Z" transform="translate(-0.23)"/><path class="c" d="M13,18,21,7.26a1,1,0,0,0-1.38.12h0l-6.67,6.89-2.51-3c-1.2-1.38-2.83-.33-3.21,0L13,18" transform="translate(-0.23)"/></svg>
