<?xml version="1.0" standalone="no"?>
<!DOCTYPE svg PUBLIC "-//W3C//DTD SVG 20010904//EN"
 "http://www.w3.org/TR/2001/REC-SVG-20010904/DTD/svg10.dtd">
<svg version="1.0" xmlns="http://www.w3.org/2000/svg"
 width="700.000000pt" height="700.000000pt" viewBox="0 0 700.000000 700.000000"
 preserveAspectRatio="xMidYMid meet">
<metadata>
Created by potrace 1.14, written by Peter Selinger 2001-2017
</metadata>
<g transform="translate(0.000000,700.000000) scale(0.100000,-0.100000)"
fill="#000000" stroke="none">
<path d="M3285 6994 c-22 -2 -89 -9 -150 -14 -585 -57 -1178 -282 -1670 -633
-294 -210 -602 -518 -813 -813 -350 -491 -560 -1043 -634 -1669 -17 -145 -17
-576 0 -730 116 -1048 677 -1972 1547 -2550 510 -339 1050 -524 1680 -576 154
-13 490 -7 645 11 1040 123 1948 678 2525 1545 307 461 490 956 562 1520 22
173 25 625 5 785 -52 422 -152 777 -320 1132 -369 783 -1054 1426 -1862 1748
-279 111 -583 188 -890 226 -118 15 -538 27 -625 18z m347 -531 c62 -35 113
-96 129 -156 11 -41 10 -143 -7 -499 l-7 -137 39 -6 c151 -25 269 -53 397 -96
420 -138 768 -384 1055 -748 l19 -25 239 155 c131 85 255 161 274 169 50 21
146 18 200 -7 25 -11 62 -37 84 -58 111 -109 107 -292 -9 -394 -20 -17 -140
-84 -267 -147 -300 -150 -280 -136 -261 -182 71 -166 132 -409 153 -610 17
-157 8 -444 -19 -594 -25 -137 -77 -323 -120 -425 l-30 -72 82 -44 c45 -24
159 -84 253 -132 95 -47 187 -100 207 -116 110 -90 117 -284 15 -390 -55 -57
-117 -83 -198 -82 -81 0 -88 4 -375 188 -124 80 -227 145 -229 145 -2 0 -25
-28 -52 -62 -68 -88 -215 -239 -304 -313 -297 -247 -652 -410 -1034 -475 -66
-11 -120 -21 -121 -23 -1 -1 4 -96 11 -212 18 -311 17 -402 -5 -450 -25 -56
-66 -101 -120 -133 -40 -23 -57 -27 -126 -27 -70 0 -87 4 -134 30 -66 37 -107
85 -128 152 -15 48 -15 77 -2 348 l14 295 -45 6 c-94 13 -279 55 -370 85 -435
142 -788 390 -1077 758 l-19 23 -248 -160 c-275 -178 -311 -193 -407 -173 -65
14 -95 31 -143 78 -84 83 -104 201 -52 306 15 31 44 70 63 86 20 17 150 88
290 158 195 99 251 131 246 143 -3 8 -28 78 -55 156 -81 237 -118 457 -118
713 0 243 37 456 120 701 28 80 51 149 53 154 1 5 -110 67 -247 137 -137 71
-264 140 -282 154 -86 66 -119 208 -74 313 28 64 101 133 161 151 62 19 140
16 191 -7 24 -10 146 -85 272 -166 186 -120 231 -145 240 -134 7 7 45 52 85
100 325 390 803 659 1320 742 52 9 95 17 96 18 1 2 -5 135 -14 295 -14 277
-14 295 3 349 22 70 91 143 157 167 68 26 164 17 231 -20z"/>
<path d="M3189 5105 c-331 -66 -621 -223 -861 -466 -107 -109 -128 -138 -107
-149 8 -5 163 -105 344 -223 l330 -214 64 59 c74 67 227 149 316 169 l57 13
-6 65 c-3 36 -13 212 -21 391 -9 179 -18 335 -21 348 -5 25 -5 25 -95 7z"/>
<path d="M3716 5048 c-12 -146 -38 -740 -33 -745 3 -2 42 -17 86 -33 101 -35
204 -95 278 -164 l58 -53 330 214 c182 117 337 217 344 222 20 12 -15 59 -129
172 -202 202 -459 349 -733 419 -62 16 -131 31 -154 35 l-41 6 -6 -73z"/>
<path d="M1957 4043 c-117 -344 -122 -696 -15 -1033 17 -52 34 -103 39 -112 9
-16 52 3 378 167 l369 184 -18 63 c-28 103 -34 211 -16 315 8 49 18 96 21 104
3 10 -44 39 -162 100 -93 48 -256 132 -364 188 -108 55 -198 101 -201 101 -2
0 -16 -35 -31 -77z"/>
<path d="M4650 3939 c-195 -99 -359 -184 -363 -188 -5 -5 -1 -39 9 -78 23 -87
23 -283 1 -363 -8 -30 -15 -56 -14 -57 5 -4 727 -373 731 -373 3 0 21 50 41
111 92 286 104 606 34 894 -22 89 -71 235 -79 235 -3 0 -165 -82 -360 -181z"/>
<path d="M2553 2726 c-188 -121 -342 -224 -343 -227 0 -3 29 -40 65 -82 174
-204 446 -383 717 -471 109 -36 275 -72 285 -62 3 3 15 188 27 410 l21 405
-82 26 c-102 34 -214 98 -290 168 l-58 54 -342 -221z"/>
<path d="M4055 2900 c-60 -62 -176 -130 -281 -165 -52 -17 -96 -33 -98 -36 -6
-6 40 -808 47 -815 11 -12 249 47 356 87 128 48 252 114 374 199 123 87 355
317 336 334 -16 15 -667 430 -679 433 -8 2 -33 -15 -55 -37z"/>
</g>
</svg>
