<svg xmlns="http://www.w3.org/2000/svg" viewBox="0 0 409.09 563.17"><defs><style>.b{fill-rule:evenodd}</style></defs><path d="M.01 199.8L175.55 34.56a151.85 151.85 0 00-21.33 5c-39.76 12.59-69.66 36.07-91.21 66.83a166.51 166.51 0 00-18.43 34.17 171.92 171.92 0 00-10.78 42c-2 15.72-1.51 33.68.08 49.87a306.53 306.53 0 007.79 44.92c10.53 41.8 27.06 78.47 46.3 111.74 19.34 33.46 41.46 63.71 65.45 92.61 3.95 4.78 8.13 9.4 12.24 14.11a550.13 550.13 0 0025.39 27.34c2.06 2 4.25 4.57 7.12 6a15 15 0 0010.88.71 21.31 21.31 0 007.7-5.43 497.85 497.85 0 0019.21-20.27c25-27.83 48.47-57.12 69.09-89s39.21-66.37 52.71-105.35a351.23 351.23 0 0011.58-41.1c4.59-21.35 8-45.52 7.22-71.28a176.49 176.49 0 00-2.6-23.76 165.77 165.77 0 00-12.49-40.21 169 169 0 00-19.7-33 171.44 171.44 0 00-56.84-48.49 165.82 165.82 0 00-38.12-14.6 162.81 162.81 0 00-47.36-5.19 208.4 208.4 0 00-23.9 2.38z" fill-rule="evenodd" fill="#fff"/><path class="b" d="M199.56 0h10c31.75 1.14 58.06 8.15 80.77 18.81a206.53 206.53 0 0158.68 40.95 204.72 204.72 0 0160.08 139.07v14.28c-1.58 44.31-11.18 81.45-23.44 115.29s-28.23 64.09-45.81 92.86c-17.44 28.53-37.37 55-58.39 80.35a692.77 692.77 0 01-32.76 36.59c-5.55 5.75-10.92 12.24-17.84 16.86a47.21 47.21 0 01-26.52 8.1 46.11 46.11 0 01-26.32-8.35c-7-4.66-12.23-11.13-17.84-16.86s-11.19-12-16.62-18.09a727.19 727.19 0 01-74.36-98.93A492.33 492.33 0 0123.38 328C11.06 294.19 1.6 257 .03 212.69v-12.9c.05 0 .09-.06.08-.16A203.55 203.55 0 0160.01 60a204.11 204.11 0 0158.63-41.12C141.37 8.29 167.68 1.04 199.56 0zm-24.01 34.56a151.85 151.85 0 00-21.33 5c-39.76 12.59-69.66 36.07-91.21 66.83a166.51 166.51 0 00-18.43 34.17 171.92 171.92 0 00-10.78 42c-2 15.72-1.51 33.68.08 49.87a306.53 306.53 0 007.79 44.92c10.53 41.8 27.06 78.47 46.3 111.74 19.34 33.46 41.46 63.71 65.45 92.61 3.95 4.78 8.13 9.4 12.24 14.11a550.13 550.13 0 0025.39 27.34c2.06 2 4.25 4.57 7.12 6a15 15 0 0010.88.71 21.31 21.31 0 007.7-5.43 497.85 497.85 0 0019.21-20.27c25-27.83 48.47-57.12 69.09-89s39.21-66.37 52.71-105.35a351.23 351.23 0 0011.58-41.1c4.59-21.35 8-45.52 7.22-71.28a176.49 176.49 0 00-2.6-23.76 165.77 165.77 0 00-12.49-40.21 169 169 0 00-19.7-33 171.44 171.44 0 00-56.84-48.49 165.82 165.82 0 00-38.12-14.6 162.81 162.81 0 00-47.36-5.19 208.4 208.4 0 00-23.9 2.38z"/><path class="b" d="M319.64 124.06c-13.57-5.8-34-8.9-52.71-5.83-28.71 4.69-48.71 19.37-62.36 39.08-10.92-15.77-26-28.33-46.21-35a97.68 97.68 0 00-16.3-4.05c-18.61-2.81-39-.17-52.62 5.83-.05-.47.52-.95.89-1.46a141.4 141.4 0 0143.3-39.41c18.12-10.66 38.93-17.89 66.17-19.16a135.59 135.59 0 0140.62 4.5c23.89 6.35 42.44 17.51 58.39 31.62a130.44 130.44 0 0120.52 23.11c.12.22.49.47.31.77z"/><path class="b" d="M123.58 146.85a64.79 64.79 0 0132.27 6.71 58.46 58.46 0 0121 17.93 61.85 61.85 0 0111.16 27.82c.88 5.78.89 12 .89 18.57v58.47c0 3.2-.48 6.84.25 9.32a5.45 5.45 0 005.51 4.21c6 .17 12.53.13 19.38.08 3.11 0 5-1.45 5.83-4 .75-2.36.34-6.16.34-9.4 0-19.46-.23-38.87.08-58.32.1-6.81-.15-12.8.72-18.64 2.49-16.43 10-29 20.44-38a61.71 61.71 0 0126-13 66.9 66.9 0 0117.68-1.62 68.63 68.63 0 0116.88 2.78 57.81 57.81 0 0124.65 14.36c9.76 9.76 16.85 22.17 18.4 40a87.36 87.36 0 01-.81 18.17 144.52 144.52 0 01-7.66 31.27c-6.85 18.92-17.37 34.41-29.92 48a140.2 140.2 0 01-75.5 41.43 142.94 142.94 0 01-36 2.29 136.35 136.35 0 01-59.92-18 142.93 142.93 0 01-41.76-36.19c-14.33-18.28-25-40.34-28.62-68.84a86.54 86.54 0 01-.82-18.17 64.25 64.25 0 019.66-29.27c9.82-15.44 26.03-26.83 49.87-27.96zm-21.33 12.25a51.68 51.68 0 00-15.57 11.6 53.73 53.73 0 00-10.67 16.45 54.7 54.7 0 00-4 23.12c.78 16.91 8 28.25 17.12 37.21a51.05 51.05 0 0016.45 10.7 55.28 55.28 0 0023.21 4.06 52.51 52.51 0 0021.56-5.6 53.43 53.43 0 0015.66-11.51c8.63-9.43 15.16-21.7 14.67-39.57a54 54 0 00-5.51-21.65 49.76 49.76 0 00-11.59-15.56c-9.13-8.31-21.84-15.61-39.67-14.77a55.06 55.06 0 00-21.66 5.51zm140.92 11.6a49.15 49.15 0 00-10.7 16.46 55.7 55.7 0 00-4.05 23.12 52.71 52.71 0 005.59 21.55 54.07 54.07 0 0011.52 15.65 53.45 53.45 0 0039.65 14.77 54.43 54.43 0 0021.65-5.52 52 52 0 0015.57-11.59 54.86 54.86 0 0010.7-16.45 54.38 54.38 0 00-29.51-71 54.69 54.69 0 00-23.2-4.06c-17.19.77-28.32 7.99-37.22 17.06z"/><path class="b" d="M125.36 184.88a22.91 22.91 0 0116.78 6.25 22.21 22.21 0 017.21 15.81 22.47 22.47 0 01-6.23 16.79 23 23 0 01-15.82 7.23 22.34 22.34 0 01-16.79-6.24 22.78 22.78 0 01-7.21-15.82 23 23 0 0122.06-24zM281.87 184.88a22.62 22.62 0 0116.79 6.25 23.13 23.13 0 017.21 15.81 22.57 22.57 0 01-6.25 16.79 22.88 22.88 0 01-15.81 7.23 23.15 23.15 0 01-24.08-22 23.15 23.15 0 0122.14-24.08zM173.01 373.99a521.65 521.65 0 01-28.71 45 516.76 516.76 0 01-46.55-79.13c0-.14.08-.16.08-.08a171.06 171.06 0 0075.18 34.21zM164.01 445.19a584.63 584.63 0 0043.29-68.29c45.58-1.42 77.32-16.7 103.88-37.14a502.5 502.5 0 01-48 81.5 672.94 672.94 0 01-50.84 62.35c-1.85 2-3.79 4.15-5.84 6.33-.5.53-1.83 2-1.95 2a13.26 13.26 0 01-1.38-1.4c-3.16-3.18-6.16-6.69-9.16-9.98a628.25 628.25 0 01-30-35.37z"/></svg>
